# xmcd
#
# Track frame offsets:
# 182
# 16722
# 33615
# 50512
# 65515
# 79005
# 98352
# 113172
# 126215
# 145292
# 160347
# 174580
#
# Disc length: 2568 seconds
#
# Revision: 1
# Processed by: cddbd v1.5.1PL2 Copyright (c) Steve Scherf et al.
# Submitted via: Audio-CD-Archiv 4.00.531
#
DISCID=970a060c
DTITLE=Jill Morris - Just One Kiss
DYEAR=2003
DGENRE=country
TTITLE0=Jill Morris - Shot Full Of Love
TTITLE1=Jill Morris - Runaway Love
TTITLE2=Jill Morris - Don't Say A Word
TTITLE3=Jill Morris - Lovey Dovey
TTITLE4=Jill Morris - Just One Kiss
TTITLE5=Jill Morris - I'll Never Say Never Again
TTITLE6=Jill Morris - I Love That Boy
TTITLE7=Jill Morris - I Get So Rattled
TTITLE8=Jill Morris - Love Me Out Of My Mind
TTITLE9=Jill Morris - Everything About You
TTITLE10=Jill Morris - Be Young, Be Foolish, Be Happy
TTITLE11=Jill Morris - One Moment In The Sun
EXTD=
EXTT0=
EXTT1=
EXTT2=
EXTT3=
EXTT4=
EXTT5=
EXTT6=
EXTT7=
EXTT8=
EXTT9=
EXTT10=
EXTT11=
PLAYORDER=
